# xmcd CD database file
#
# Track frame offsets:
#	150
#	28113
#	46871
#	71434
#	100090
#	128161
#	157260
#	177906
#	203655
#	232212
#	254100
#	277394
#	302598
#
# Disc length: 4237 seconds
#
# Revision: 1
# Processed by: cddbd v1.5PL3 Copyright (c) Steve Scherf et al.
# Submitted via: CDex 1.51
#
DISCID=c2108b0d
DTITLE=Kokhe - Follow Your Heart
DYEAR=2000
DGENRE=New Age
TTITLE0=Alexandra
TTITLE1=Mystic Waters
TTITLE2=Riding The Stars
TTITLE3=Forest Dream
TTITLE4=Flowing
TTITLE5=Silver Wings
TTITLE6=Follow  Your Heart
TTITLE7=Hermopolis
TTITLE8=Colour of The Sea
TTITLE9=Drawing  Circles
TTITLE10=Voice of the Wind
TTITLE11=Daydreaming
TTITLE12=Una Ultima Polabra
EXTD=YEAR: 2000
EXTT0=
EXTT1=
EXTT2=
EXTT3=
EXTT4=
EXTT5=
EXTT6=
EXTT7=
EXTT8=
EXTT9=
EXTT10=
EXTT11=
EXTT12=
PLAYORDER=
